<svg xmlns="http://www.w3.org/2000/svg" viewBox="0 0 36 36"><defs><style>.cls-1{fill:#fff;}</style></defs><g id="Layer_2" data-name="Layer 2"><g id="Layer_1-2" data-name="Layer 1"><path class="cls-1" d="M27,18a9,9,0,0,0-5-8v4.42l4.91,4.91A9.07,9.07,0,0,0,27,18Zm5,0a13.83,13.83,0,0,1-1.08,5.28l3,3A18,18,0,0,0,22,.46V4.59A14,14,0,0,1,32,18ZM2.55,0,0,2.55,9.45,12H0V24H8L18,34V20.55l8.51,8.51A14.09,14.09,0,0,1,22,31.42v4.13a17.94,17.94,0,0,0,7.37-3.62L33.45,36,36,33.45l-18-18ZM18,2,13.82,6.18,18,10.36Z"/></g></g></svg>